<svg width="24" height="31" viewBox="0 0 24 31" fill="none" xmlns="http://www.w3.org/2000/svg">
<path d="M15.1598 0.212602L15.153 0.205546C15.0238 0.0725406 14.8459 -0.00187395 14.6605 0.000264396C14.6353 -0.000804779 14.6098 0.00133357 14.5855 0.00732092H3.55736C1.59307 0.00796244 0.00106916 1.60018 0 3.56468V26.5506C0.00106916 28.5149 1.59307 30.1069 3.55736 30.108H19.5518C21.5163 30.1069 23.1085 28.5149 23.1091 26.5506V8.42856C23.1078 8.24723 23.0369 8.07339 22.9109 7.94295L15.1598 0.212602ZM15.3446 2.32636L20.7901 7.75798H17.5336C16.3261 7.75456 15.348 6.77648 15.3446 5.56895V2.32636ZM19.5518 28.726H3.55736C2.34962 28.7226 1.37196 27.7445 1.36812 26.5367V3.55078C1.37196 2.34347 2.34962 1.36539 3.55736 1.36154H13.9762V5.56895C13.9773 7.53324 15.5695 9.12545 17.5336 9.12631H21.741V26.5367C21.7399 27.7455 20.7606 28.7249 19.5518 28.726Z" fill="black"/>
<path d="M4 12H19" stroke="black" stroke-width="1.5"/>
<path d="M4 16H19" stroke="black" stroke-width="1.5"/>
<path d="M4 20H19" stroke="black" stroke-width="1.5"/>
<path d="M4 24H19" stroke="black" stroke-width="1.5"/>
</svg>
