<svg width="26" height="26" viewBox="0 0 26 26" fill="none" xmlns="http://www.w3.org/2000/svg">
<path d="M24.8209 12.2913L22.6346 10.1051L13.9234 1.38447C13.8015 1.26258 13.6568 1.16589 13.4976 1.09992C13.3384 1.03395 13.1677 1 12.9953 1C12.8229 1 12.6522 1.03395 12.493 1.09992C12.3337 1.16589 12.1891 1.26258 12.0672 1.38447L3.34283 10.0994L1.15097 12.2913C1.05161 12.3979 0.997516 12.539 1.00009 12.6847C1.00266 12.8304 1.06169 12.9695 1.16475 13.0725C1.26781 13.1756 1.40685 13.2346 1.55257 13.2372C1.6983 13.2397 1.83933 13.1857 1.94597 13.0863L3.17784 11.8544V23.6875C3.17784 24.0356 3.31612 24.3694 3.56226 24.6156C3.8084 24.8617 4.14224 25 4.49033 25H9.61094C9.95903 25 10.2929 24.8617 10.539 24.6156C10.7852 24.3694 10.9234 24.0356 10.9234 23.6875V16.1875C10.9234 16.1378 10.9432 16.0901 10.9783 16.055C11.0135 16.0198 11.0612 16 11.1109 16H14.8609C14.9106 16 14.9583 16.0198 14.9935 16.055C15.0287 16.0901 15.0484 16.1378 15.0484 16.1875V23.6875C15.0484 24.0356 15.1867 24.3694 15.4328 24.6156C15.679 24.8617 16.0128 25 16.3609 25H21.4871C21.6595 25 21.8302 24.9661 21.9894 24.9001C22.1486 24.8341 22.2933 24.7375 22.4152 24.6156C22.5371 24.4937 22.6338 24.349 22.6997 24.1898C22.7657 24.0305 22.7996 23.8599 22.7996 23.6875V11.8601L24.0259 13.0863C24.1325 13.1857 24.2735 13.2397 24.4193 13.2372C24.565 13.2346 24.704 13.1756 24.8071 13.0725C24.9102 12.9695 24.9692 12.8304 24.9718 12.6847C24.9743 12.539 24.9202 12.3979 24.8209 12.2913V12.2913ZM21.6746 23.6875C21.6746 23.7372 21.6549 23.7849 21.6197 23.8201C21.5846 23.8553 21.5369 23.875 21.4871 23.875H16.3609C16.3112 23.875 16.2635 23.8553 16.2283 23.8201C16.1932 23.7849 16.1734 23.7372 16.1734 23.6875V16.1875C16.1734 15.8394 16.0351 15.5056 15.789 15.2595C15.5428 15.0133 15.209 14.875 14.8609 14.875H11.1109C10.7628 14.875 10.429 15.0133 10.1829 15.2595C9.93671 15.5056 9.79843 15.8394 9.79843 16.1875V23.6875C9.79843 23.7372 9.77868 23.7849 9.74352 23.8201C9.70835 23.8553 9.66066 23.875 9.61094 23.875H4.49033C4.4406 23.875 4.39291 23.8553 4.35775 23.8201C4.32259 23.7849 4.30283 23.7372 4.30283 23.6875V10.7313L12.8528 2.17947C12.8879 2.14454 12.9354 2.12494 12.985 2.12494C13.0345 2.12494 13.082 2.14454 13.1172 2.17947L21.6728 10.7351L21.6746 23.6875Z" fill="black" stroke="black" stroke-width="0.5"/>
</svg>
