<svg width="24" height="24" viewBox="0 0 24 24" fill="none" xmlns="http://www.w3.org/2000/svg">
<g clip-path="url(#clip0_3909_8874)">
<path d="M12 23.2008C18.1856 23.2008 23.2001 18.1864 23.2001 12.0008C23.2001 5.81519 18.1856 0.800781 12 0.800781C5.81446 0.800781 0.800049 5.81519 0.800049 12.0008C0.800049 18.1864 5.81446 23.2008 12 23.2008Z" stroke="black" stroke-width="1.5" stroke-miterlimit="10" stroke-linecap="round" stroke-linejoin="round"/>
<path d="M8.84616 20V18.728H10.9822V8.912H9.06216V7.664H13.4302V18.728H15.3262V20H8.84616ZM12.0862 6.008C11.5902 6.008 11.1822 5.864 10.8622 5.576C10.5582 5.288 10.4062 4.912 10.4062 4.448C10.4062 3.984 10.5582 3.616 10.8622 3.344C11.1822 3.072 11.5902 2.936 12.0862 2.936C12.5662 2.936 12.9582 3.072 13.2622 3.344C13.5662 3.6 13.7182 3.968 13.7182 4.448C13.7182 4.912 13.5662 5.288 13.2622 5.576C12.9582 5.864 12.5662 6.008 12.0862 6.008Z" fill="black"/>
</g>
<defs>
<clipPath id="clip0_3909_8874">
<rect width="24" height="24" fill="white"/>
</clipPath>
</defs>
</svg>
