<svg width="28" height="21" viewBox="0 0 28 21" fill="none" xmlns="http://www.w3.org/2000/svg">
<path d="M13.9999 11.1309C9.94844 11.1309 6.6521 14.8243 6.6521 19.3639C6.6521 19.7135 6.90533 19.9973 7.21733 19.9973C7.52933 19.9973 7.78257 19.7135 7.78257 19.3639C7.78257 17.2277 8.64487 15.3132 10 14.0343C11.0819 13.0133 12.4779 12.3975 13.9999 12.3975C15.522 12.3975 16.918 13.0133 17.9999 14.0343C19.355 15.3132 20.2173 17.2277 20.2173 19.3639C20.2173 19.7135 20.4705 19.9973 20.7825 19.9973C21.0945 19.9973 21.3478 19.7135 21.3478 19.3639C21.3478 14.8243 18.0514 11.1309 13.9999 11.1309Z" fill="black"/>
<path d="M7.78257 19.3639C7.78257 19.7135 7.52933 19.9973 7.21733 19.9973H13.9999L10 14.0343C8.64487 15.3132 7.78257 17.2277 7.78257 19.3639Z" fill="black"/>
<path d="M20.7825 19.9973C20.4705 19.9973 20.2173 19.7135 20.2173 19.3639C20.2173 17.2277 19.355 15.3132 17.9999 14.0343L13.9999 19.9973H20.7825Z" fill="black"/>
<path d="M7.21733 19.9973C6.90533 19.9973 6.6521 19.7135 6.6521 19.3639C6.6521 14.8243 9.94844 11.1309 13.9999 11.1309C18.0514 11.1309 21.3478 14.8243 21.3478 19.3639C21.3478 19.7135 21.0945 19.9973 20.7825 19.9973M7.21733 19.9973C7.52933 19.9973 7.78257 19.7135 7.78257 19.3639C7.78257 17.2277 8.64487 15.3132 10 14.0343M7.21733 19.9973H13.9999M20.7825 19.9973C20.4705 19.9973 20.2173 19.7135 20.2173 19.3639C20.2173 17.2277 19.355 15.3132 17.9999 14.0343M20.7825 19.9973H13.9999M10 14.0343C11.0819 13.0133 12.4779 12.3975 13.9999 12.3975C15.522 12.3975 16.918 13.0133 17.9999 14.0343M10 14.0343L13.9999 19.9973M13.9999 19.9973L17.9999 14.0343" stroke="black" stroke-width="0.5"/>
<path d="M13.8118 13.9615H13.5H12.5V12.5H15.5V13.9615L14.5 13.9615H14.1882H13.8118ZM14.1368 14.9615L14.9535 17.4745L14 19.0391L13.0465 17.4745L13.8632 14.9615H14.1368Z" fill="black" stroke="black"/>
<path d="M8.72088 14.49C7.92843 13.953 7.01733 13.668 6.08695 13.668C3.28235 13.668 1 16.2253 1 19.3678C1 19.7174 1.25323 20.0011 1.56523 20.0011C1.87723 20.0011 2.13047 19.7174 2.13047 19.3678C2.13042 16.9231 3.90523 14.9346 6.08695 14.9346C6.81158 14.9346 7.51919 15.155 8.13419 15.5729C8.39982 15.7541 8.74801 15.6591 8.91079 15.3602C9.07358 15.0612 8.98763 14.6724 8.72088 14.49Z" fill="black" stroke="black" stroke-width="0.5"/>
<path d="M21.913 13.668C20.9827 13.668 20.0715 13.953 19.278 14.4913C19.0123 14.6737 18.9264 15.0625 19.0881 15.3615C19.2519 15.6604 19.5979 15.7554 19.8647 15.5743C20.4807 15.155 21.1884 14.9346 21.913 14.9346C24.0947 14.9346 25.8695 16.9231 25.8695 19.3678C25.8695 19.7174 26.1228 20.0011 26.4348 20.0011C26.7468 20.0011 27 19.7174 27 19.3678C27 16.2253 24.7176 13.668 21.913 13.668Z" fill="black" stroke="black" stroke-width="0.5"/>
<path d="M6.16713 6.06641C4.60825 6.06641 3.34106 7.48756 3.34106 9.23294C3.34106 10.9783 4.60941 12.3995 6.16713 12.3995C7.72485 12.3995 8.9932 10.9783 8.9932 9.23294C8.9932 7.48756 7.72596 6.06641 6.16713 6.06641ZM6.16713 11.1329C5.23225 11.1329 4.47148 10.2805 4.47148 9.23294C4.47148 8.18542 5.23225 7.33301 6.16713 7.33301C7.10202 7.33301 7.86278 8.18542 7.86278 9.23294C7.86278 10.2805 7.10197 11.1329 6.16713 11.1329Z" fill="black" stroke="black" stroke-width="0.5"/>
<path d="M21.913 6.06641C20.3553 6.06641 19.0869 7.48756 19.0869 9.23294C19.0869 10.9783 20.3553 12.3995 21.913 12.3995C23.4707 12.3995 24.739 10.9783 24.739 9.23294C24.739 7.48756 23.4707 6.06641 21.913 6.06641ZM21.913 11.1329C20.9781 11.1329 20.2173 10.2805 20.2173 9.23294C20.2173 8.18542 20.9781 7.33301 21.913 7.33301C22.8479 7.33301 23.6086 8.18542 23.6086 9.23294C23.6086 10.2805 22.8478 11.1329 21.913 11.1329Z" fill="black" stroke="black" stroke-width="0.5"/>
<path d="M14 1C11.8183 1 10.0435 2.98858 10.0435 5.4332C10.0435 7.87781 11.8182 9.86639 14 9.86639C16.1818 9.86639 17.9565 7.87775 17.9565 5.4332C17.9565 2.98864 16.1818 1 14 1ZM14 8.59973C12.4423 8.59973 11.1739 7.17858 11.1739 5.4332C11.1739 3.68781 12.4423 2.26666 14 2.26666C15.5577 2.26666 16.8261 3.68781 16.8261 5.4332C16.8261 7.17858 15.5578 8.59973 14 8.59973Z" fill="black" stroke="black" stroke-width="0.5"/>
</svg>
